<?xml version="1.0" encoding="UTF-8" standalone="no"?>
<svg
   xmlns:dc="http://purl.org/dc/elements/1.1/"
   xmlns:cc="http://creativecommons.org/ns#"
   xmlns:rdf="http://www.w3.org/1999/02/22-rdf-syntax-ns#"
   xmlns:svg="http://www.w3.org/2000/svg"
   xmlns="http://www.w3.org/2000/svg"
   xmlns:sodipodi="http://sodipodi.sourceforge.net/DTD/sodipodi-0.dtd"
   xmlns:inkscape="http://www.inkscape.org/namespaces/inkscape"
   aria-hidden="true"
   focusable="false"
   data-prefix="far"
   data-icon="file-code"
   class="svg-inline--fa fa-file-code fa-w-12"
   role="img"
   viewBox="0 0 32 32"
   version="1.1"
   id="svg4"
   sodipodi:docname="file-code.svg"
   width="32"
   height="32"
   inkscape:version="1.0.2 (e86c870879, 2021-01-15)">
  <metadata
     id="metadata10">
    <rdf:RDF>
      <cc:Work
         rdf:about="">
        <dc:format>image/svg+xml</dc:format>
        <dc:type
           rdf:resource="http://purl.org/dc/dcmitype/StillImage" />
        <dc:title />
      </cc:Work>
    </rdf:RDF>
  </metadata>
  <defs
     id="defs8" />
  <sodipodi:namedview
     pagecolor="#ffffff"
     bordercolor="#666666"
     borderopacity="1"
     objecttolerance="10"
     gridtolerance="10"
     guidetolerance="10"
     inkscape:pageopacity="0"
     inkscape:pageshadow="2"
     inkscape:window-width="1920"
     inkscape:window-height="1017"
     id="namedview6"
     showgrid="false"
     inkscape:pagecheckerboard="true"
     fit-margin-top="0"
     fit-margin-left="0"
     fit-margin-right="0"
     fit-margin-bottom="0"
     inkscape:zoom="9.3912619"
     inkscape:cx="-24.236184"
     inkscape:cy="13.130786"
     inkscape:window-x="-8"
     inkscape:window-y="-8"
     inkscape:window-maximized="1"
     inkscape:current-layer="svg4"
     inkscape:document-rotation="0" />
  <path
     fill="currentColor"
     d="M 27.11424,6.123804 21.87151,0.88107791 C 21.30912,0.31868776 20.54677,0 19.75317,0 H 6.99941 C 5.34349,0.00624878 4,1.3497364 4,3.0056629 V 29.000586 C 4,30.656512 5.34349,32 6.99941,32 H 24.9959 c 1.65593,0 2.99941,-1.343488 2.99941,-2.999414 V 8.248389 c 0,-0.793595 -0.31868,-1.5621949 -0.88107,-2.124585 z m -7.383575,-3.5665715 5.340981,5.4474541 -5.340981,0.053241 z M 25.52831,29.479755 6.6267231,29.586237 6.5202412,2.632976 17.103942,2.579735 17.316906,9.3446708 c 0.02615,0.8306762 0.295933,1.1802612 1.127023,1.1802612 l 6.711694,0 z"
     id="path2"
     style="fill:#517191;fill-opacity:1;stroke-width:0.0624878"
     sodipodi:nodetypes="ssscsssssssccccccccsscc" />
  <path
     fill="currentColor"
     d="m 13.931672,21.205609 -0.01008,-0.01031 -1.652556,-1.489617 1.652556,-1.489616 c 0.181382,-0.164941 0.20153,-0.453586 0.04031,-0.639143 l -0.01008,-0.01031 -0.876663,-0.958714 c -0.171303,-0.185558 -0.453445,-0.190712 -0.624748,-0.02061 l -2.9070919,2.788522 c -0.1864124,0.180402 -0.1864124,0.484512 0,0.659761 l 2.9070919,2.78852 c 0.08063,0.07731 0.191452,0.123705 0.3023,0.123705 0.120918,0 0.241836,-0.05154 0.322448,-0.144323 l 0.876663,-0.958715 c 0.166263,-0.180403 0.156184,-0.469048 -0.02016,-0.639143 z m 3.007853,-6.963569 c -0.236797,-0.07216 -0.478634,0.067 -0.549175,0.309263 l -2.755938,9.695392 c -0.07055,0.242255 0.06547,0.49482 0.3023,0.561826 l 1.229338,0.365962 c 0.236798,0.07216 0.483673,-0.07216 0.549176,-0.309263 l 2.755937,-9.700546 c 0.07055,-0.242256 -0.06547,-0.494821 -0.302299,-0.561827 z m 1.234378,3.963718 0.01008,0.01031 1.652556,1.489615 -1.652556,1.489616 c -0.181373,0.164942 -0.20153,0.453586 -0.04031,0.639144 l 0.01008,0.01031 0.876663,0.958715 c 0.166264,0.180403 0.448406,0.190712 0.624749,0.02061 l 2.907083,-2.788521 c 0.18642,-0.180403 0.18642,-0.484511 0,-0.65976 l -2.907083,-2.788521 c -0.176343,-0.170094 -0.458485,-0.16494 -0.624749,0.02062 l -0.876663,0.958712 c -0.166263,0.180404 -0.156184,0.469049 0.02016,0.639143 z"
     id="path2-0"
     style="fill:#000000;fill-opacity:1;stroke-width:0.05096"
     sodipodi:nodetypes="cccccccccccsccscccccccccccccccccccccccc" />
</svg>
