<?xml version="1.0" encoding="UTF-8" standalone="no"?>
<svg
   xmlns:dc="http://purl.org/dc/elements/1.1/"
   xmlns:cc="http://creativecommons.org/ns#"
   xmlns:rdf="http://www.w3.org/1999/02/22-rdf-syntax-ns#"
   xmlns:svg="http://www.w3.org/2000/svg"
   xmlns="http://www.w3.org/2000/svg"
   xmlns:sodipodi="http://sodipodi.sourceforge.net/DTD/sodipodi-0.dtd"
   xmlns:inkscape="http://www.inkscape.org/namespaces/inkscape"
   viewBox="0 0 32.000061 31.466724"
   width="32.000061"
   height="31.466724"
   version="1.1"
   id="svg19"
   sodipodi:docname="Lighthouse2.svg"
   inkscape:version="1.0.2 (e86c870879, 2021-01-15)">
  <metadata
     id="metadata25">
    <rdf:RDF>
      <cc:Work
         rdf:about="">
        <dc:format>image/svg+xml</dc:format>
        <dc:type
           rdf:resource="http://purl.org/dc/dcmitype/StillImage" />
        <dc:title></dc:title>
      </cc:Work>
    </rdf:RDF>
  </metadata>
  <defs
     id="defs23" />
  <sodipodi:namedview
     pagecolor="#ffffff"
     bordercolor="#666666"
     borderopacity="1"
     objecttolerance="10"
     gridtolerance="10"
     guidetolerance="10"
     inkscape:pageopacity="0"
     inkscape:pageshadow="2"
     inkscape:window-width="1920"
     inkscape:window-height="1017"
     id="namedview21"
     showgrid="false"
     inkscape:pagecheckerboard="true"
     fit-margin-top="0"
     fit-margin-left="0"
     fit-margin-right="0"
     fit-margin-bottom="0"
     inkscape:zoom="13.28125"
     inkscape:cx="12.020516"
     inkscape:cy="2.7829439"
     inkscape:window-x="-8"
     inkscape:window-y="-8"
     inkscape:window-maximized="1"
     inkscape:current-layer="Outline"
     inkscape:document-rotation="0" />
  <g
     id="Outline"
     transform="matrix(0.06666679,0,0,0.06666679,-1.0666686,-1.600003)">
    <path
       d="m 399.428,405.029 a 8,8 0 0 0 -6.763,-5 L 345,396.055 321,192 h 7 a 8,8 0 0 0 7.155,-4.422 l 16,-32 A 8,8 0 0 0 344,144 h -16 v -24 a 8,8 0 0 0 -8,-8 h -8 V 80 h 16 V 64 H 296 V 24 H 280 V 64 H 264 V 40 h -16 v 24 h -64 v 16 h 16 v 32 h -8 a 8,8 0 0 0 -8,8 v 24 h -16 a 8,8 0 0 0 -7.155,11.578 l 16,32 A 8,8 0 0 0 184,192 h 7 L 164.646,416 H 128 a 8,8 0 0 0 -6.784,3.76 L 83.566,480 H 16 v 16 H 496 V 480 H 429.416 Z M 412.184,480 h -55.9 l -29.625,-44.438 a 8.008,8.008 0 0 0 -7.648,-3.5 l -37.931,4.738 18.959,-28.438 86.369,7.2 z m -198.627,-34.758 -2.476,-9.9 59.7,-11.939 -10.681,16.021 z m 3.909,15.637 98.62,-12.327 L 337.052,480 H 222.246 Z M 197.819,271 311.5,248.256 l 4.561,38.776 -123.028,24.6 z m -6.749,57.351 126.87,-25.372 4.446,37.79 -135.976,27.187 z M 296,144 v -16 h 16 v 16 z m -48,-16 v 16 h -16 v -16 z m 16,0 h 16 v 16 H 264 Z M 216,80 h 80 v 32 h -80 z m -16,48 h 16 v 16 h -16 z m -19.056,32 h 150.112 l -8,16 H 188.944 Z m 123.942,32 4.742,40.314 -109.843,21.97 7.329,-62.284 z m -120.443,192.666 139.818,-27.96 4.469,37.994 -32.065,-2.673 a 8,8 0 0 0 -7.321,3.535 l -6.008,9.012 -76.491,15.3 A 8,8 0 0 0 200,416 H 180.756 Z M 132.434,432 h 61.32 l 12,48 h -103.32 z"
       id="path2"
       style="fill:#517191;fill-opacity:1" />
    <rect
       x="248"
       y="208"
       width="16"
       height="16"
       id="rect4"
       style="fill:#517191;fill-opacity:1" />
    <path
       d="M 24.482507,146.71194 184.5647,108.76119 V 85.179231 L 25.845817,49.68107 c -6.282806,27.897728 -7.620343,60.88745 -1.36331,97.03087 z"
       id="path8-0"
       style="fill:#1e2329;fill-opacity:1"
       sodipodi:nodetypes="ccccc" />
    <path
       d="M 487.51748,51.649229 327.60069,85.190986 v 23.986134 l 158.55348,39.50298 c 6.28281,-27.89773 7.62035,-60.88745 1.36331,-97.030871 z"
       id="path8-0-5"
       style="fill:#1e2329;fill-opacity:1"
       sodipodi:nodetypes="ccccc" />
  </g>
</svg>
