<?xml version="1.0" encoding="UTF-8" standalone="no"?>
<svg
   xmlns:dc="http://purl.org/dc/elements/1.1/"
   xmlns:cc="http://creativecommons.org/ns#"
   xmlns:rdf="http://www.w3.org/1999/02/22-rdf-syntax-ns#"
   xmlns:svg="http://www.w3.org/2000/svg"
   xmlns="http://www.w3.org/2000/svg"
   xmlns:sodipodi="http://sodipodi.sourceforge.net/DTD/sodipodi-0.dtd"
   xmlns:inkscape="http://www.inkscape.org/namespaces/inkscape"
   viewBox="0 0 32.003391 31.999998"
   width="32.003391"
   height="31.999998"
   version="1.1"
   id="svg19"
   sodipodi:docname="Lighthouse.svg"
   inkscape:version="1.0.2 (e86c870879, 2021-01-15)">
  <metadata
     id="metadata25">
    <rdf:RDF>
      <cc:Work
         rdf:about="">
        <dc:format>image/svg+xml</dc:format>
        <dc:type
           rdf:resource="http://purl.org/dc/dcmitype/StillImage" />
        <dc:title />
      </cc:Work>
    </rdf:RDF>
  </metadata>
  <defs
     id="defs23" />
  <sodipodi:namedview
     pagecolor="#ffffff"
     bordercolor="#666666"
     borderopacity="1"
     objecttolerance="10"
     gridtolerance="10"
     guidetolerance="10"
     inkscape:pageopacity="0"
     inkscape:pageshadow="2"
     inkscape:window-width="1920"
     inkscape:window-height="1017"
     id="namedview21"
     showgrid="false"
     inkscape:pagecheckerboard="true"
     fit-margin-top="0"
     fit-margin-left="0"
     fit-margin-right="0"
     fit-margin-bottom="0"
     inkscape:zoom="13.28125"
     inkscape:cx="6.2506352"
     inkscape:cy="19.251226"
     inkscape:window-x="-8"
     inkscape:window-y="-8"
     inkscape:window-maximized="1"
     inkscape:current-layer="Outline"
     inkscape:document-rotation="0" />
  <g
     id="Outline"
     transform="matrix(0.06666679,0,0,0.06666679,-1.0650032,-1.0667302)">
    <path
       d="m 399.428,405.029 a 8,8 0 0 0 -6.763,-5 L 345,396.055 321,192 h 7 a 8,8 0 0 0 7.155,-4.422 l 16,-32 A 8,8 0 0 0 344,144 h -16 v -24 a 8,8 0 0 0 -8,-8 h -8 V 80 h 16 V 64 H 296 V 24 H 280 V 64 H 264 V 40 h -16 v 24 h -64 v 16 h 16 v 32 h -8 a 8,8 0 0 0 -8,8 v 24 h -16 a 8,8 0 0 0 -7.155,11.578 l 16,32 A 8,8 0 0 0 184,192 h 7 L 164.646,416 H 128 a 8,8 0 0 0 -6.784,3.76 L 83.566,480 H 16 v 16 H 496 V 480 H 429.416 Z M 412.184,480 h -55.9 l -29.625,-44.438 a 8.008,8.008 0 0 0 -7.648,-3.5 l -37.931,4.738 18.959,-28.438 86.369,7.2 z m -198.627,-34.758 -2.476,-9.9 59.7,-11.939 -10.681,16.021 z m 3.909,15.637 98.62,-12.327 L 337.052,480 H 222.246 Z M 197.819,271 311.5,248.256 l 4.561,38.776 -123.028,24.6 z m -6.749,57.351 126.87,-25.372 4.446,37.79 -135.976,27.187 z M 296,144 v -16 h 16 v 16 z m -48,-16 v 16 h -16 v -16 z m 16,0 h 16 v 16 H 264 Z M 216,80 h 80 v 32 h -80 z m -16,48 h 16 v 16 h -16 z m -19.056,32 h 150.112 l -8,16 H 188.944 Z m 123.942,32 4.742,40.314 -109.843,21.97 7.329,-62.284 z m -120.443,192.666 139.818,-27.96 4.469,37.994 -32.065,-2.673 a 8,8 0 0 0 -7.321,3.535 l -6.008,9.012 -76.491,15.3 A 8,8 0 0 0 200,416 H 180.756 Z M 132.434,432 h 61.32 l 12,48 h -103.32 z"
       id="path2"
       style="fill:#517191;fill-opacity:1" />
    <rect
       x="248"
       y="208"
       width="16"
       height="16"
       id="rect4"
       style="fill:#517191;fill-opacity:1" />
    <path
       d="m 56,144 h 88 V 128 H 56 a 24,24 0 0 1 0,-48 8,8 0 0 0 8,-8 39.991,39.991 0 0 1 71.25,-24.952 8,8 0 0 0 11.551,0.992 31.989,31.989 0 0 1 46.799,4.76 l 12.8,-9.61 A 47.994,47.994 0 0 0 142.5,31.339 56,56 0 0 0 48.472,64.71 40,40 0 0 0 56,144 Z"
       id="path6"
       style="fill:#1e2329;fill-opacity:1" />
    <path
       d="M 371.188,194.021 A 8,8 0 0 0 376.75,191.048 39.991,39.991 0 0 1 448,216 a 8,8 0 0 0 8,8 24,24 0 0 1 0,48 H 344 v 16 h 112 a 40,40 0 0 0 7.528,-79.29 56,56 0 0 0 -94.022,-33.376 47.7,47.7 0 0 0 -10.414,-4.908 l -5.035,15.187 a 31.849,31.849 0 0 1 11.143,6.427 8.018,8.018 0 0 0 5.988,1.981 z"
       id="path8"
       style="fill:#1e2329;fill-opacity:1" />
    <path
       d="m 53.657,202.343 -11.314,11.314 16,16 a 8,8 0 0 0 11.314,0 l 16,-16 L 74.343,202.343 64,212.687 Z"
       id="path10"
       style="fill:#1e2329;fill-opacity:1" />
    <path
       d="m 128,276.687 -10.343,-10.344 -11.314,11.314 16,16 a 8,8 0 0 0 11.314,0 l 16,-16 -11.314,-11.314 z"
       id="path12"
       style="fill:#1e2329;fill-opacity:1" />
    <path
       d="m 392,72 a 7.976,7.976 0 0 0 5.657,-2.343 l 16,-16 L 402.343,42.343 392,52.687 381.657,42.343 l -11.314,11.314 16,16 A 7.976,7.976 0 0 0 392,72 Z"
       id="path14"
       style="fill:#1e2329;fill-opacity:1" />
    <path
       d="m 448,136 a 7.976,7.976 0 0 0 5.657,-2.343 l 16,-16 -11.314,-11.314 -10.343,10.344 -10.343,-10.344 -11.314,11.314 16,16 A 7.976,7.976 0 0 0 448,136 Z"
       id="path16"
       style="fill:#1e2329;fill-opacity:1" />
  </g>
</svg>
