<?xml version="1.0" encoding="UTF-8" standalone="no"?>
<svg
   xmlns:dc="http://purl.org/dc/elements/1.1/"
   xmlns:cc="http://creativecommons.org/ns#"
   xmlns:rdf="http://www.w3.org/1999/02/22-rdf-syntax-ns#"
   xmlns:svg="http://www.w3.org/2000/svg"
   xmlns="http://www.w3.org/2000/svg"
   xmlns:sodipodi="http://sodipodi.sourceforge.net/DTD/sodipodi-0.dtd"
   xmlns:inkscape="http://www.inkscape.org/namespaces/inkscape"
   version="1.0"
   width="1280.000000pt"
   height="960.000000pt"
   viewBox="0 0 1280.000000 960.000000"
   preserveAspectRatio="xMidYMid meet"
   id="svg40"
   sodipodi:docname="me.svg"
   inkscape:version="1.0.2 (e86c870879, 2021-01-15)">
  <metadata
     id="metadata46">
    <rdf:RDF>
      <cc:Work
         rdf:about="">
        <dc:format>image/svg+xml</dc:format>
        <dc:type
           rdf:resource="http://purl.org/dc/dcmitype/StillImage" />
        <dc:title></dc:title>
      </cc:Work>
    </rdf:RDF>
  </metadata>
  <defs
     id="defs44" />
  <sodipodi:namedview
     pagecolor="#ffffff"
     bordercolor="#666666"
     borderopacity="1"
     objecttolerance="10"
     gridtolerance="10"
     guidetolerance="10"
     inkscape:pageopacity="0"
     inkscape:pageshadow="2"
     inkscape:window-width="1920"
     inkscape:window-height="1017"
     id="namedview42"
     showgrid="false"
     inkscape:zoom="0.61054687"
     inkscape:cx="835.26401"
     inkscape:cy="551.26977"
     inkscape:window-x="-8"
     inkscape:window-y="-8"
     inkscape:window-maximized="1"
     inkscape:current-layer="svg40" />
  <g
     transform="translate(0.000000,960.000000) scale(0.100000,-0.100000)"
     fill="#000000"
     stroke="none"
     id="g38">
    <path
       d="m 6285,7748 c -35,-18 -47,-20 -115,-12 -72,9 -77,8 -116,-18 -29,-19 -56,-28 -93,-29 -43,-2 -56,-7 -69,-26 -13,-22 -22,-24 -76,-23 -81,2 -82,2 -68,-12 22,-22 13,-28 -43,-28 -32,0 -57,-5 -62,-13 -13,-19 -80,-59 -173,-101 -92,-42 -169,-107 -220,-186 -20,-31 -49,-57 -92,-82 -38,-22 -106,-81 -170,-145 -104,-105 -108,-112 -186,-268 -69,-138 -81,-170 -87,-230 -4,-38 -13,-102 -20,-140 -10,-53 -11,-106 -4,-215 11,-187 26,-359 39,-435 5,-33 10,-87 10,-121 0,-54 -2,-62 -24,-72 -32,-14 -56,-65 -56,-119 0,-37 6,-52 35,-86 21,-24 35,-51 35,-67 0,-33 -37,-205 -50,-228 -20,-38 -50,-358 -50,-532 0,-299 58,-846 126,-1174 19,-93 32,-178 28,-188 -6,-20 53,-279 66,-288 4,-3 15,-30 25,-60 20,-60 160,-297 205,-345 l 27,-30 -35,-151 -35,-151 -42,-26 c -28,-18 -56,-27 -83,-27 -61,0 -332,-57 -332,-70 0,-17 -80,-59 -125,-65 -64,-9 -207,-57 -299,-100 -39,-19 -116,-49 -172,-67 l -101,-34 -229,33 c -355,50 -312,55 -834,-97 -534,-155 -713,-210 -929,-284 -92,-32 -180,-56 -203,-56 -32,0 -62,-13 -140,-60 -80,-49 -107,-60 -142,-60 -41,0 -45,-3 -112,-81 -38,-44 -73,-95 -77,-114 -8,-30 -38,-52 -299,-225 C 759,734 614,632 597,612 579,593 525,532 476,478 409,405 379,362 356,309 322,232 337,245 78,62 16,19 -2,0 18,0 22,0 97,52 184,115 l 159,114 31,71 c 24,53 55,97 131,180 54,61 103,116 107,124 4,8 145,105 313,217 263,174 305,206 305,227 0,16 25,54 71,108 l 71,84 h 54 c 30,0 54,4 54,9 0,5 40,32 89,60 61,35 100,51 124,51 20,0 116,27 214,60 218,74 481,155 980,299 332,97 391,111 455,111 66,0 474,-52 483,-62 3,-2 -43,-19 -100,-38 -58,-19 -105,-38 -105,-42 0,-4 3,-8 8,-8 11,0 476,154 482,160 22,24 282,116 355,126 43,5 105,38 125,65 9,11 233,61 300,66 43,4 79,13 107,29 l 41,24 -15,-57 c -9,-37 -14,-88 -11,-143 5,-132 40,-194 190,-342 66,-65 124,-118 129,-118 5,0 22,-8 37,-19 170,-116 316,-176 607,-248 127,-31 165,-37 246,-35 l 97,2 4,-37 c 7,-57 -32,-835 -43,-858 -17,-37 -66,-296 -56,-292 6,2 23,60 38,130 14,70 31,133 36,140 6,6 18,188 28,404 l 18,391 24,11 c 29,13 83,14 83,2 0,-5 -27,-186 -60,-403 -45,-297 -69,-427 -100,-532 -35,-124 -41,-161 -25,-145 2,3 24,75 49,160 36,127 54,222 100,544 32,215 59,404 62,422 5,31 6,32 61,35 l 56,3 18,50 17,50 1,-57 c 1,-52 3,-58 25,-64 14,-3 161,-4 328,-1 349,5 396,13 551,93 167,87 214,124 279,220 l 60,87 -4,112 -3,111 -47,56 c -27,30 -48,61 -48,67 0,7 21,-3 48,-22 42,-31 291,-157 310,-157 4,0 71,-23 147,-51 280,-102 365,-132 630,-220 149,-49 284,-93 300,-98 17,-5 122,-36 235,-69 477,-140 584,-174 761,-244 148,-59 210,-89 296,-146 60,-40 113,-72 119,-72 13,0 74,-102 99,-165 25,-65 130,-182 250,-280 112,-91 272,-255 311,-317 27,-45 44,-60 44,-39 0,4 -13,25 -30,46 -16,21 -30,42 -30,48 0,17 -161,176 -275,271 -133,111 -230,219 -250,277 -21,58 -97,179 -113,179 -7,0 -39,17 -70,37 -32,21 -65,43 -73,48 -9,6 -34,22 -55,36 -57,38 -384,164 -574,220 -91,28 -280,83 -420,124 -140,41 -343,104 -450,140 -107,37 -205,69 -218,71 -23,5 -98,31 -367,131 -82,31 -188,69 -235,85 -207,72 -431,213 -545,343 l -60,68 3,246 3,246 27,35 c 34,43 63,86 110,166 40,67 66,109 92,150 21,31 36,94 79,314 29,151 59,293 66,315 7,22 23,77 36,122 l 22,81 46,-14 c 44,-13 47,-13 81,12 19,14 47,33 61,42 19,11 29,30 38,71 18,77 89,295 117,360 22,48 24,68 24,200 0,98 5,164 15,201 8,30 22,109 31,175 9,66 20,124 25,130 18,18 10,105 -12,136 -17,25 -27,29 -67,29 -28,0 -57,-7 -71,-16 -40,-29 -45,-4 -17,87 15,46 45,176 67,289 63,314 75,564 38,775 -20,117 -76,320 -104,380 -33,69 -87,161 -103,175 -29,24 -66,81 -97,148 -27,57 -36,67 -93,99 -40,22 -73,50 -92,78 -16,23 -50,62 -77,86 -26,24 -60,56 -76,72 -16,15 -32,27 -37,27 -5,0 -17,10 -27,23 -10,13 -60,40 -116,62 -77,30 -96,42 -92,55 4,13 -8,20 -52,34 -32,10 -67,25 -78,32 -11,8 -42,14 -69,14 -40,0 -58,7 -105,38 -58,40 -153,67 -181,52 -11,-6 -38,6 -88,37 -65,41 -76,45 -99,34 -21,-10 -33,-8 -77,12 -43,19 -59,22 -101,15 -45,-8 -227,-2 -265,7 -8,2 -33,-5 -55,-17 z m -81,-323 c 7,-19 43,-19 76,0 18,10 60,14 147,15 123,0 123,0 129,-25 7,-28 34,-33 57,-10 13,12 16,9 27,-30 7,-25 15,-45 18,-45 2,0 27,14 54,30 26,17 50,30 53,30 3,0 -4,-22 -14,-50 -11,-27 -15,-50 -9,-50 5,0 30,14 54,31 l 45,31 -21,-41 -20,-41 h 24 c 16,0 32,11 47,31 l 22,32 26,-32 c 14,-17 31,-31 36,-31 6,0 24,20 40,44 23,33 32,41 38,30 12,-21 24,-17 31,11 7,28 15,31 40,12 17,-13 18,-15 1,-47 l -17,-33 45,6 c 25,4 61,14 82,24 26,13 38,14 43,6 4,-7 27,-15 50,-19 49,-8 128,-53 202,-115 44,-37 48,-44 33,-50 -10,-4 -25,-15 -33,-24 -14,-16 -11,-17 40,-10 30,4 57,11 58,16 2,5 16,9 32,9 23,0 30,-5 35,-30 4,-20 13,-30 25,-30 15,0 80,-77 80,-95 0,-3 21,-37 48,-77 26,-39 51,-78 57,-87 5,-9 19,-32 31,-51 11,-19 29,-78 39,-131 18,-93 18,-102 1,-215 -10,-66 -20,-171 -23,-235 -5,-113 -5,-119 29,-220 39,-115 58,-255 58,-423 0,-79 -3,-97 -14,-93 -71,28 -264,67 -326,67 -4,0 -10,13 -12,29 -3,24 0,32 19,40 13,6 30,11 38,11 26,0 16,19 -29,52 -24,18 -89,69 -144,113 l -102,80 -327,47 c -181,26 -341,48 -358,48 -16,0 -79,-21 -138,-47 l -108,-48 4,-40 c 3,-22 7,-48 9,-59 2,-14 -6,-22 -31,-30 -28,-10 -36,-20 -49,-60 -15,-47 -16,-48 -32,-28 -15,18 -33,21 -167,27 -145,7 -153,7 -182,-14 l -30,-22 -7,37 c -5,28 -14,39 -38,50 -17,7 -26,13 -20,14 7,0 12,10 12,23 0,12 4,34 7,50 5,17 3,27 -4,27 -6,0 -11,6 -11,13 0,6 -58,35 -128,64 l -127,51 -275,13 c -207,9 -281,9 -297,0 -12,-6 -47,-47 -78,-91 -44,-62 -66,-85 -96,-97 -29,-11 -47,-29 -75,-74 -19,-32 -40,-59 -46,-59 -7,0 -8,29 -4,88 4,48 10,175 15,282 5,107 13,211 20,230 15,49 14,70 -6,70 -15,0 -15,1 0,18 11,12 17,36 17,71 0,45 3,54 20,58 26,7 20,27 -9,31 -21,3 -19,7 24,48 43,40 45,44 24,44 -19,0 -21,2 -9,10 13,8 12,10 -3,10 -10,0 -15,5 -12,10 3,6 17,10 30,10 18,0 22,4 18,20 -3,11 -13,20 -22,20 -14,0 -14,2 -1,10 9,6 15,29 16,69 2,44 8,65 22,79 11,11 54,62 95,114 100,123 170,195 299,303 120,100 160,117 258,115 50,-1 68,-5 83,-20 25,-28 38,-25 77,15 19,20 59,47 90,61 53,25 58,25 123,13 63,-12 71,-11 110,9 51,25 63,27 71,7 z M 4982,5727 c -32,-34 -28,-54 15,-72 37,-16 39,-15 145,30 127,53 154,55 388,25 199,-26 318,-27 335,-3 12,16 17,15 78,-11 65,-28 66,-28 73,-74 6,-37 -1,-80 -32,-205 -39,-158 -39,-159 -82,-194 l -43,-36 -447,13 -447,13 -43,191 c -24,105 -43,194 -42,198 0,15 63,113 82,131 30,25 45,21 20,-6 z m 2306,-51 c 111,-15 179,-29 190,-39 27,-24 104,-62 137,-67 29,-5 30,-6 33,-70 2,-36 -6,-126 -18,-201 l -22,-137 -40,-22 -40,-23 -432,8 -431,7 -34,26 c -27,22 -46,57 -97,182 -67,165 -92,253 -76,273 5,7 12,24 15,38 10,42 47,47 357,48 247,1 308,-3 458,-23 z m -881,-88 c 12,-12 27,-37 34,-57 6,-20 41,-111 77,-202 62,-156 69,-168 107,-192 l 40,-25 436,-7 c 458,-8 452,-8 504,37 20,17 27,42 47,170 l 23,149 34,-6 c 19,-4 65,-8 102,-10 70,-3 198,-39 211,-59 4,-6 8,-52 8,-103 0,-50 5,-104 11,-120 28,-74 41,-189 34,-308 -5,-101 -16,-157 -67,-355 -33,-129 -67,-262 -74,-295 -7,-33 -20,-78 -28,-100 -8,-22 -21,-65 -30,-96 -17,-61 -26,-71 -94,-109 -36,-20 -48,-34 -64,-75 -10,-27 -28,-56 -38,-64 -13,-9 -20,-25 -20,-47 0,-40 -29,-74 -63,-74 -25,0 -81,-54 -115,-111 -12,-19 -43,-53 -69,-76 -44,-37 -49,-46 -60,-106 -7,-37 -13,-80 -13,-96 0,-20 -9,-36 -27,-51 -32,-25 -34,-23 -58,80 -55,235 -126,359 -263,460 -40,30 -84,64 -95,76 -19,18 -200,73 -399,120 -16,3 -28,9 -28,13 0,4 -24,13 -52,20 -97,24 -186,64 -192,84 -2,10 -11,17 -18,15 -10,-4 -14,-39 -16,-139 l -3,-135 356,-99 355,-99 55,-92 c 30,-51 60,-96 65,-99 12,-8 13,-165 1,-165 -5,0 -12,-24 -15,-54 -4,-30 -14,-62 -21,-72 -8,-11 -15,-33 -15,-50 0,-26 -10,-37 -67,-79 -39,-28 -106,-63 -158,-82 -91,-35 -609,-183 -637,-183 -18,0 -349,135 -428,174 -53,27 -126,95 -201,187 -31,37 -39,59 -54,142 -10,53 -22,97 -26,97 -8,0 -39,98 -39,122 0,7 34,57 76,111 74,93 82,100 198,167 l 121,70 h 180 c 99,0 189,3 201,6 17,5 22,18 32,102 7,53 12,114 12,134 v 37 l -35,-15 c -20,-8 -106.0877,-37.8869 -151.0877,-37.8869 -165.6861,-20.5438 -234.9962,-25 -330.9962,-64 -50,-20 -119.0584,-51.2008 -124.0584,-51.2008 -7,0 -156.2846,-114.9707 -206.2846,-156.9707 -9,-8 -51.3723,-46 -72.3723,-85 -21,-38 -50.3431,-74.657 -59.3431,-85.657 -10,-11 -12.3139,-38.4854 -15.3139,-68.4854 -4,-30 -26.8577,-86.7153 -26.8577,-86.7153 -12.2789,-53.181 -4.0282,-43.821 -15.2573,-84.1989 C 5137,3275.999 5132,3248 5128,3244 c -28,-27 -78,129 -78,242 0,46 -5,77 -15,90 -8,11 -14,42 -15,75 0,92 -12,179 -24,179 -6,0 -24,16 -39,35 -15,19 -36,35 -46,35 -19,0 -28,25 -99,295 -61,230 -80,338 -87,491 -7,142 4,261 40,419 7,33 19,95 26,138 6,43 16,80 20,83 5,3 9,37 9,76 0,77 19,188 32,188 4,0 8,-2 8,-5 0,-2 18,-82 40,-176 22,-95 40,-180 40,-190 0,-11 9,-20 23,-23 12,-3 221,-10 464,-17 l 442,-12 34,30 c 19,17 39,32 45,34 5,2 19,42 30,89 56,227 62,244 95,273 l 32,29 140,-7 c 122,-6 143,-9 162,-27 z M 4730,5468 v -93 l -25,30 c -29,35 -33,99 -9,133 27,39 34,24 34,-70 z m 3674,-360 c 17,-24 22,-103 8,-112 -5,-3 -14,-51 -21,-108 -7,-57 -22,-139 -32,-183 -14,-59 -19,-118 -19,-228 0,-129 -3,-153 -20,-188 -27,-53 -93,-247 -115,-340 -17,-71 -20,-75 -68,-108 -41,-27 -56,-32 -85,-27 -19,3 -39,9 -43,13 -4,4 18,93 49,197 l 57,189 62,51 c 35,28 63,57 63,65 0,10 -8,7 -26,-9 l -25,-24 7,68 c 5,47 4,67 -3,63 -6,-4 -14,-36 -18,-72 -6,-59 -34,-119 -49,-105 -2,3 13,129 35,280 37,255 69,511 69,553 0,9 8,17 18,17 9,1 28,7 42,15 40,23 96,19 114,-7 z M 7535,2378 c -4,-123 -3,-233 2,-245 4,-12 51,-67 103,-124 52,-56 102,-114 110,-129 8,-15 34,-51 58,-80 l 42,-52 v -101 -102 l -56,-82 c -43,-63 -71,-92 -118,-122 -97,-62 -172,-100 -255,-127 -149,-49 -194,-54 -492,-54 h -279 v 58 c 0,35 -6,66 -14,78 -14,18 -15,18 -24,-7 -6,-14 -16,-44 -22,-67 -13,-41 -14,-41 -64,-44 -47,-3 -52,-6 -65,-36 -12,-27 -20,-32 -47,-32 -18,0 -39,-3 -47,-6 -12,-4 -17,7 -24,48 l -8,53 -95,1 c -98,1 -144,8 -315,51 -214,53 -314,92 -460,176 -115,68 -158,100 -247,186 -91,87 -115,117 -148,184 -35,70 -40,88 -40,151 0,72 4,96 61,359 l 33,148 90,-94 c 50,-52 127,-126 171,-164 l 80,-70 128,-32 c 70,-17 190,-38 265,-46 75,-8 166,-23 200,-35 54,-17 90,-20 233,-20 186,0 223,6 539,92 l 155,42 153,102 c 139,92 165,114 274,233 66,72 122,131 125,131 3,0 2,-100 -2,-222 z"
       id="path2"
       sodipodi:nodetypes="ccccccsscccccsccccscscscscccscccccsscccccccscscccccccsccccscsccsscsccsccsscccccccccsccccccccccccscccccccccccccccccccscsccccccscccscsccsccscsccccccccccccscccccccscsccscccccccccccsscsccsccccccccccccccscscsccccscccsccsccccccccscccsssscccccccscsscsccccscccccccccccccscsscccccccscscscscccscscscsccscccccccccccccccccccccccccccccccccccccccccccccccccccccscccssccccsscccscccccscccccccccsccsccscccsscccsccsccccscccccccsccssscccccssscsccccccccccscccsccscsccccscccscccccccsccccccscccccccscscccccsccccccccsccccccscsccccsc" />
    <path
       d="M5324 5522 c-78 -23 -153 -78 -182 -134 -13 -23 -17 -36 -10 -26 13 15 21 10 93 -49 44 -36 89 -70 100 -76 11 -6 75 -11 145 -11 120 0 128 1 190 31 36 17 82 34 102 38 33 6 96 55 71 55 -6 0 -16 -6 -22 -14 -7 -8 -31 -17 -54 -21 -23 -4 -57 -16 -76 -27 -38 -22 -111 -48 -111 -41 0 3 16 23 35 44 45 50 48 99 8 141 -36 38 -19 37 106 -7 104 -36 121 -40 121 -27 0 4 -49 24 -108 44 -97 34 -122 38 -247 44 l-140 7 -94 -56 c-52 -31 -97 -55 -99 -52 -8 8 28 49 73 80 125 90 412 85 594 -10 17 -8 31 -13 31 -11 0 10 -61 37 -138 63 -105 35 -296 42 -388 15z m83 -59 c-9 -2 -27 -23 -38 -45 -26 -50 -19 -101 18 -138 l26 -25 -33 -3 c-19 -2 -45 2 -59 9 -32 16 -101 80 -101 93 0 14 45 52 92 79 21 11 38 24 38 29 0 4 17 7 38 7 20 -1 29 -3 19 -6z m93 -87 c-16 -20 -34 -20 -49 -2 -10 11 -7 17 11 30 19 14 24 14 37 1 12 -11 12 -17 1 -29z m95 9 c0 -25 -37 -32 -54 -11 -18 21 -4 38 27 34 19 -2 27 -9 27 -23z"
       id="path4" />
    <path
       d="M6900 5520 c-60 -16 -200 -84 -200 -97 0 -2 33 13 73 34 39 22 102 47 139 56 86 22 259 23 339 2 63 -17 150 -66 209 -119 34 -30 34 -30 10 -2 -40 46 -153 114 -218 131 -83 21 -267 19 -352 -5z"
       id="path6" />
    <path
       d="M6885 5433 c-73 -16 -215 -92 -215 -115 0 -14 11 -9 47 18 40 30 131 68 187 78 l39 7 -21 -34 -20 -35 25 -49 c14 -26 35 -56 47 -65 29 -24 18 -22 -50 9 -81 37 -214 65 -214 45 0 -5 30 -14 67 -21 37 -7 96 -25 132 -40 39 -17 106 -33 164 -41 l97 -14 93 42 c50 23 111 44 133 48 41 6 73 19 64 27 -40 32 -174 99 -241 120 -74 23 -103 27 -200 26 -63 -1 -123 -3 -134 -6z m160 -52 c0 -8 -8 -19 -17 -25 -22 -13 -44 5 -34 29 7 20 51 16 51 -4z m79 -3 c20 -9 23 -14 15 -25 -15 -17 -29 -17 -51 4 -35 31 -14 44 36 21z m178 -17 c23 -10 52 -26 63 -34 29 -22 11 -37 -100 -86 -69 -30 -106 -41 -133 -39 l-37 3 47 23 c51 26 68 56 68 125 0 36 2 39 24 33 13 -3 44 -14 68 -25z"
       id="path8" />
    <path
       d="M5988 5104 c-5 -4 -8 -22 -8 -41 0 -21 -24 -80 -67 -165 -38 -72 -102 -197 -143 -278 -41 -81 -81 -154 -89 -164 -11 -13 -11 -16 0 -16 18 0 52 56 113 185 26 54 51 102 55 105 5 3 41 70 80 148 62 124 72 150 69 189 -2 25 -6 41 -10 37z"
       id="path10" />
    <path
       d="M6678 4554 c-4 -3 5 -34 20 -67 30 -73 30 -72 39 -64 4 4 -4 33 -17 65 -25 63 -33 75 -42 66z"
       id="path12" />
    <path
       d="M5678 4415 c-4 -5 31 -154 39 -164 2 -2 6 -2 9 2 7 7 -24 147 -35 160 -4 4 -10 5 -13 2z"
       id="path14" />
    <path
       d="M6731 4385 c-23 -57 -23 -61 -1 -39 14 14 20 30 18 45 -4 23 -5 23 -17 -6z"
       id="path16" />
    <path
       d="M5803 4300 c-37 -15 -27 -23 18 -16 38 6 48 3 121 -45 43 -29 81 -49 85 -45 8 7 14 2 -79 64 -77 52 -102 59 -145 42z"
       id="path18" />
    <path
       d="M6388 4286 c-72 -34 -126 -75 -148 -111 -21 -35 -24 -45 -12 -45 4 0 16 15 28 33 12 18 39 45 62 60 33 23 44 27 61 18 11 -6 50 -11 86 -11 59 0 90 9 135 38 3 2 -6 12 -20 22 -36 28 -130 26 -192 -4z"
       id="path20" />
    <path
       d="M6670 4235 c-33 -30 -65 -55 -70 -55 -6 0 -30 -9 -52 -20 -23 -11 -52 -20 -64 -20 -13 0 -26 -4 -29 -10 -4 -6 10 -10 34 -10 23 0 41 3 41 8 0 4 22 15 48 25 49 17 134 83 153 118 16 30 3 23 -61 -36z"
       id="path22" />
    <path
       d="M5814 3737 c-100 -12 -103 -13 -163 -61 -34 -27 -61 -51 -61 -53 0 -13 33 4 79 41 l53 44 142 12 142 13 68 -33 68 -32 82 21 81 20 200 -59 c203 -61 225 -66 225 -52 0 4 -99 36 -219 71 -189 55 -224 62 -248 53 -83 -33 -109 -34 -170 -6 -70 31 -140 37 -279 21z"
       id="path24" />
    <path
       d="M5660 3610 c-25 -10 -54 -21 -64 -24 -10 -4 -16 -9 -12 -13 10 -11 126 29 126 44 0 7 -1 13 -2 12 -2 0 -23 -9 -48 -19z"
       id="path26" />
    <path
       d="M5724 3618 c-6 -10 -3 -11 106 -39 77 -20 123 -23 465 -30 209 -5 401 -12 428 -15 29 -4 47 -2 47 4 0 17 -80 22 -480 31 -364 8 -390 10 -473 33 -48 14 -90 21 -93 16z"
       id="path28" />
    <path
       d="M5606 3532 c-7 -12 102 -99 184 -147 36 -20 67 -40 70 -44 3 -4 37 -15 75 -23 65 -15 67 -16 28 -17 -38 -1 -43 -4 -43 -24 0 -13 -13 -62 -29 -110 -22 -64 -26 -88 -18 -95 7 -5 90 -20 185 -33 l172 -23 145 24 c80 13 145 28 145 34 0 5 -24 51 -52 102 l-53 93 -70 3 -70 3 53 9 c28 5 52 12 52 15 0 4 37 13 83 20 66 10 106 25 204 74 68 34 123 68 123 75 0 7 -49 -14 -116 -49 -89 -47 -136 -66 -207 -81 -51 -10 -112 -23 -137 -29 -62 -14 -240 -3 -358 23 -53 11 -99 24 -102 28 -3 4 -38 26 -78 49 -40 23 -90 56 -110 74 -20 17 -44 37 -54 45 -9 7 -19 9 -22 4z"
       id="path30" />
    <path
       d="M8341 4983 c-29 -21 -48 -39 -41 -41 12 -4 110 58 110 71 0 14 -16 7 -69 -30z"
       id="path32" />
    <path
       d="M8349 4959 c-20 -86 -33 -189 -24 -189 13 0 42 176 31 187 -3 3 -6 4 -7 2z"
       id="path34" />
    <path
       d="M1336 1023 c-21 -62 -20 -156 4 -336 20 -153 44 -272 80 -392 5 -16 12 -57 16 -90 4 -33 10 -64 14 -70 4 -5 10 -27 14 -47 4 -20 13 -50 21 -65 13 -25 15 -26 15 -6 0 12 -4 24 -9 27 -5 4 -12 25 -16 49 -4 23 -11 47 -15 52 -4 6 -10 37 -14 70 -4 33 -11 74 -16 90 -36 123 -60 237 -81 400 -23 172 -22 270 3 325 16 35 16 35 17 -66 1 -109 17 -212 57 -364 36 -136 83 -292 94 -312 6 -10 10 -24 10 -32 0 -7 12 -35 27 -62 20 -35 29 -69 34 -124 l6 -75 1 71 c2 61 -2 80 -28 130 -16 32 -30 65 -30 72 0 7 -4 20 -10 30 -11 20 -58 176 -94 312 -40 153 -56 255 -56 361 0 78 -3 99 -14 99 -8 0 -21 -21 -30 -47z"
       id="path36" />
  </g>
</svg>
