<?xml version="1.0" encoding="UTF-8" standalone="no"?>
<svg
   xmlns:dc="http://purl.org/dc/elements/1.1/"
   xmlns:cc="http://creativecommons.org/ns#"
   xmlns:rdf="http://www.w3.org/1999/02/22-rdf-syntax-ns#"
   xmlns:svg="http://www.w3.org/2000/svg"
   xmlns="http://www.w3.org/2000/svg"
   xmlns:sodipodi="http://sodipodi.sourceforge.net/DTD/sodipodi-0.dtd"
   xmlns:inkscape="http://www.inkscape.org/namespaces/inkscape"
   id="Layer_1"
   data-name="Layer 1"
   viewBox="0 0 104.30264 124.10098"
   version="1.1"
   sodipodi:docname="resume11.svg"
   width="104.30264"
   height="124.10098"
   inkscape:version="1.0.2 (e86c870879, 2021-01-15)">
  <metadata
     id="metadata21">
    <rdf:RDF>
      <cc:Work
         rdf:about="">
        <dc:format>image/svg+xml</dc:format>
        <dc:type
           rdf:resource="http://purl.org/dc/dcmitype/StillImage" />
        <dc:title>b</dc:title>
      </cc:Work>
    </rdf:RDF>
  </metadata>
  <sodipodi:namedview
     pagecolor="#ffffff"
     bordercolor="#666666"
     borderopacity="1"
     objecttolerance="10"
     gridtolerance="10"
     guidetolerance="10"
     inkscape:pageopacity="0"
     inkscape:pageshadow="2"
     inkscape:window-width="1920"
     inkscape:window-height="1017"
     id="namedview19"
     showgrid="false"
     inkscape:pagecheckerboard="true"
     fit-margin-top="0"
     fit-margin-left="0"
     fit-margin-right="0"
     fit-margin-bottom="0"
     inkscape:zoom="4.695631"
     inkscape:cx="5.2519225"
     inkscape:cy="73.960468"
     inkscape:window-x="-8"
     inkscape:window-y="-8"
     inkscape:window-maximized="1"
     inkscape:current-layer="Layer_1" />
  <defs
     id="defs4">
    <style
       id="style2">.cls-1{fill:#2d3e50;}.cls-2{fill:#1d75b8;}</style>
  </defs>
  <title
     id="title6">b</title>
  <path
     class="cls-1"
     d="m 96.009955,1.4323216e-5 h -65.678 A 4.582,4.582 0 0 0 27.071085,1.3515143 L 1.3515848,27.071134 A 4.57286,4.57286 0 0 0 2.4800971e-5,30.331874 V 115.80587 A 8.30572,8.30572 0 0 0 8.2976848,124.10098 H 96.009955 a 8.30306,8.30306 0 0 0 8.292675,-8.29511 V 8.2976743 A 8.30532,8.30532 0 0 0 96.009955,1.4323216e-5 Z M 95.077955,86.468734 V 114.87896 H 9.2246948 V 34.944244 H 26.649085 a 8.3037,8.3037 0 0 0 8.29517,-8.29523 V 9.2246743 h 60.13372 z"
     id="path8"
     style="fill:#1e2329;fill-opacity:1" />
  <path
     class="cls-2"
     d="m 52.972005,101.6853 h -27.50333 a 2.15847,2.15847 0 1 0 0,4.31694 h 27.50333 a 2.15847,2.15847 0 1 0 0,-4.31694 z"
     id="path10"
     style="fill:#517191;fill-opacity:1" />
  <path
     class="cls-2"
     d="m 23.310205,92.285514 a 2.163,2.163 0 0 0 2.15847,2.15853 h 53.36538 a 2.15853,2.15853 0 0 0 0,-4.31706 h -53.36538 a 2.15649,2.15649 0 0 0 -2.15847,2.15853 z"
     id="path12"
     style="fill:#517191;fill-opacity:1" />
  <path
     class="cls-2"
     d="m 33.483175,51.876814 1.02881,5.30307 a 6.73963,6.73963 0 0 0 13.23125,0 l 1.02881,-5.30307 a 7.09933,7.09933 0 0 0 -7.03341,-8.056 h -1.22205 a 7.09933,7.09933 0 0 0 -7.03341,8.056 z"
     id="path14"
     style="fill:#517191;fill-opacity:1" />
  <path
     class="cls-2"
     d="m 41.127645,71.583044 -6.89219,-6.89219 -7.18288,2.55109 a 2.002,2.002 0 0 0 -1.28842,1.47043 l -2.454,11.549 h 35.63487 l -2.454,-11.549 a 2.00193,2.00193 0 0 0 -1.28842,-1.47043 l -7.18288,-2.55109 z"
     id="path16"
     style="fill:#517191;fill-opacity:1" />
</svg>
