<?xml version="1.0" encoding="UTF-8" standalone="no"?>
<svg
   xmlns:dc="http://purl.org/dc/elements/1.1/"
   xmlns:cc="http://creativecommons.org/ns#"
   xmlns:rdf="http://www.w3.org/1999/02/22-rdf-syntax-ns#"
   xmlns:svg="http://www.w3.org/2000/svg"
   xmlns="http://www.w3.org/2000/svg"
   xmlns:sodipodi="http://sodipodi.sourceforge.net/DTD/sodipodi-0.dtd"
   xmlns:inkscape="http://www.inkscape.org/namespaces/inkscape"
   id="Layer_1"
   data-name="Layer 1"
   viewBox="0 0 102.13832 123.9055"
   version="1.1"
   sodipodi:docname="resume22.svg"
   width="102.13832"
   height="123.9055"
   inkscape:version="1.0.2 (e86c870879, 2021-01-15)">
  <metadata
     id="metadata23">
    <rdf:RDF>
      <cc:Work
         rdf:about="">
        <dc:format>image/svg+xml</dc:format>
        <dc:type
           rdf:resource="http://purl.org/dc/dcmitype/StillImage" />
        <dc:title>n</dc:title>
      </cc:Work>
    </rdf:RDF>
  </metadata>
  <sodipodi:namedview
     pagecolor="#ffffff"
     bordercolor="#666666"
     borderopacity="1"
     objecttolerance="10"
     gridtolerance="10"
     guidetolerance="10"
     inkscape:pageopacity="0"
     inkscape:pageshadow="2"
     inkscape:window-width="1920"
     inkscape:window-height="1017"
     id="namedview21"
     showgrid="false"
     inkscape:pagecheckerboard="true"
     fit-margin-top="0"
     fit-margin-left="0"
     fit-margin-right="0"
     fit-margin-bottom="0"
     inkscape:zoom="6.640625"
     inkscape:cx="51.06916"
     inkscape:cy="61.95275"
     inkscape:window-x="-8"
     inkscape:window-y="-8"
     inkscape:window-maximized="1"
     inkscape:current-layer="Layer_1" />
  <defs
     id="defs4">
    <style
       id="style2">.cls-1{fill:#1d75b8;}.cls-2{fill:#2d3e50;}</style>
  </defs>
  <title
     id="title6">n</title>
  <path
     class="cls-1"
     d="M 80.97505,31.09113 H 62.28397 a 1.86912,1.86912 0 1 0 0,3.73824 h 18.69108 a 1.86912,1.86912 0 1 0 0,-3.73824 z"
     id="path8"
     style="fill:#517191;fill-opacity:1" />
  <path
     class="cls-1"
     d="M 80.97505,43.9079 H 62.28397 a 1.8691,1.8691 0 1 0 0,3.7382 h 18.69108 a 1.8691,1.8691 0 1 0 0,-3.7382 z"
     id="path10"
     style="fill:#517191;fill-opacity:1" />
  <path
     class="cls-1"
     d="m 46.64551,54.85551 a 61.08185,61.08185 0 0 0 -0.53019,-7.063 2.80519,2.80519 0 0 0 -1.51177,-2.03589 c -2.62872,-1.31081 -8.39707,-3.24673 -8.39707,-3.24673 v -1.90465 l 0.16057,-0.12116 a 5.51088,5.51088 0 0 0 2.09245,-3.50226 l 0.03232,-0.203 h 0.15653 a 2.12877,2.12877 0 0 0 1.97023,-1.32491 2.31812,2.31812 0 0 0 0.28983,-1.123 2.13238,2.13238 0 0 0 -0.15148,-0.78971 1.10148,1.10148 0 0 0 -0.42717,-0.68673 L 39.79757,32.5313 39.92985,31.95367 A 6.68864,6.68864 0 0 0 33.2849,23.88376 c -0.106,-0.002 -0.21106,-0.003 -0.3151,-10e-4 -0.104,-0.002 -0.209,-0.001 -0.31506,10e-4 a 6.68864,6.68864 0 0 0 -6.64494,8.06999 l 0.13228,0.57763 -0.53219,0.32317 a 1.10148,1.10148 0 0 0 -0.42717,0.68673 2.13238,2.13238 0 0 0 -0.15148,0.78971 2.31859,2.31859 0 0 0 0.28983,1.123 2.12878,2.12878 0 0 0 1.97028,1.32491 h 0.15649 l 0.03232,0.203 a 5.51106,5.51106 0 0 0 2.09245,3.50226 l 0.16061,0.12116 v 1.90462 c 0,0 -5.7684,1.93592 -8.39711,3.24673 a 2.8053,2.8053 0 0 0 -1.51177,2.03589 61.08185,61.08185 0 0 0 -0.53019,7.063 h 27.35136 z"
     id="path12"
     style="fill:#517191;fill-opacity:1" />
  <path
     class="cls-1"
     d="M 80.97505,71.45087 H 21.29653 a 1.86912,1.86912 0 1 0 0,3.73824 h 59.67852 a 1.86912,1.86912 0 1 0 0,-3.73824 z"
     id="path14"
     style="fill:#517191;fill-opacity:1" />
  <path
     class="cls-1"
     d="M 80.97505,91.79305 H 21.29653 a 1.8691,1.8691 0 1 0 0,3.7382 h 59.67852 a 1.8691,1.8691 0 1 0 0,-3.7382 z"
     id="path16"
     style="fill:#517191;fill-opacity:1" />
  <path
     class="cls-2"
     d="M 92.09193,0 H 10.04639 A 10.05772,10.05772 0 0 0 0,10.04639 v 103.81272 a 10.05772,10.05772 0 0 0 10.04639,10.04639 h 82.04554 a 10.05772,10.05772 0 0 0 10.04639,-10.04639 V 10.04639 A 10.05772,10.05772 0 0 0 92.09193,0 Z m 1.11623,113.85911 a 1.11747,1.11747 0 0 1 -1.11627,1.11627 H 10.04639 A 1.11746,1.11746 0 0 1 8.93016,113.85911 V 10.04639 a 1.11746,1.11746 0 0 1 1.11623,-1.11627 h 82.04554 a 1.11747,1.11747 0 0 1 1.11627,1.11627 z"
     id="path18"
     style="fill:#1e2329;fill-opacity:1" />
</svg>
