<?xml version="1.0" encoding="UTF-8" standalone="no"?>
<svg
   xmlns:dc="http://purl.org/dc/elements/1.1/"
   xmlns:cc="http://creativecommons.org/ns#"
   xmlns:rdf="http://www.w3.org/1999/02/22-rdf-syntax-ns#"
   xmlns:svg="http://www.w3.org/2000/svg"
   xmlns="http://www.w3.org/2000/svg"
   xmlns:sodipodi="http://sodipodi.sourceforge.net/DTD/sodipodi-0.dtd"
   xmlns:inkscape="http://www.inkscape.org/namespaces/inkscape"
   id="Layer_1"
   data-name="Layer 1"
   viewBox="0 0 30.407635 31.999999"
   version="1.1"
   sodipodi:docname="Website-Responsive.svg"
   width="30.407635"
   height="32"
   inkscape:version="1.0.2 (e86c870879, 2021-01-15)">
  <metadata
     id="metadata15">
    <rdf:RDF>
      <cc:Work
         rdf:about="">
        <dc:format>image/svg+xml</dc:format>
        <dc:type
           rdf:resource="http://purl.org/dc/dcmitype/StillImage" />
        <dc:title>a</dc:title>
      </cc:Work>
    </rdf:RDF>
  </metadata>
  <sodipodi:namedview
     pagecolor="#ffffff"
     bordercolor="#666666"
     borderopacity="1"
     objecttolerance="10"
     gridtolerance="10"
     guidetolerance="10"
     inkscape:pageopacity="0"
     inkscape:pageshadow="2"
     inkscape:window-width="1920"
     inkscape:window-height="1017"
     id="namedview13"
     showgrid="false"
     inkscape:pagecheckerboard="true"
     fit-margin-top="0"
     fit-margin-left="0"
     fit-margin-right="0"
     fit-margin-bottom="0"
     inkscape:zoom="13.28125"
     inkscape:cx="8.8065588"
     inkscape:cy="18.56579"
     inkscape:window-x="-8"
     inkscape:window-y="-8"
     inkscape:window-maximized="1"
     inkscape:current-layer="Layer_1"
     inkscape:document-rotation="0" />
  <defs
     id="defs4">
    <style
       id="style2">.cls-1{fill:#2b77c0;}.cls-2{fill:#3b4551;}</style>
  </defs>
  <title
     id="title6">a</title>
  <path
     class="cls-1"
     d="M 29.597727,12.562253 H 19.068908 a 0.81228702,0.81228702 0 0 0 -0.809883,0.809904 V 31.190064 A 0.8123238,0.8123238 0 0 0 19.068908,32 h 10.528819 a 0.8123238,0.8123238 0 0 0 0.809908,-0.809936 V 13.37215 a 0.81228702,0.81228702 0 0 0 -0.809908,-0.809897 z m -6.479258,1.214845 h 2.429687 a 0.40611394,0.40611394 0 0 1 0.404955,0.404944 0.40099612,0.40099612 0 0 1 -0.404954,0.404957 h -2.429688 a 0.40611394,0.40611394 0 0 1 -0.404937,-0.404973 0.41146851,0.41146851 0 0 1 0.404937,-0.404928 z m 5.823209,14.173326 H 19.724977 V 16.61177 h 9.216701 z"
     id="path8"
     style="fill:#1e2329;fill-opacity:1;stroke-width:0.254127" />
  <path
     class="cls-2"
     d="M 2.6666662,5.3333351 H 21.333322 v 6.2066439 h 2.666664 V 2.6666662 A 2.6659166,2.6659166 0 0 0 21.333322,1.0479779e-7 H 2.6666662 A 2.6659405,2.6659405 0 0 0 9.8770346e-8,2.6666662 V 29.33333 A 2.6659655,2.6659655 0 0 0 2.6666662,31.999984 H 17.020012 V 25.999995 H 2.6666662 Z M 10.000007,1.9999973 h 4.000005 a 0.66666816,0.66666816 0 0 1 0,1.3333334 h -4.000005 a 0.66666816,0.66666816 0 1 1 0,-1.3333334 z"
     id="path10"
     style="fill:#517191;fill-opacity:1;stroke-width:0.254127" />
</svg>
